<svg id="gear" width="329" height="452" viewBox="0 0 329 452" fill="none" xmlns="http://www.w3.org/2000/svg">
        <path d="M317.754 230.035L294.35 226.21C292.98 221.513 291.107 216.999 288.762 212.726L302.424 193.255C303.529 191.683 303.339 189.54 301.981 188.178L286.581 172.785C285.206 171.415 283.044 171.237 281.468 172.374L262.29 186.158C257.977 183.774 253.423 181.882 248.699 180.507L244.616 157.199C244.284 155.306 242.64 153.92 240.716 153.92H218.936C216.995 153.92 215.34 155.326 215.027 157.242L211.242 180.424C206.49 181.79 201.928 183.664 197.631 186.016L178.504 172.354C176.924 171.225 174.774 171.407 173.4 172.774L158.007 188.166C156.649 189.524 156.459 191.663 157.564 193.235L171.024 212.492C168.628 216.829 166.719 221.418 165.329 226.194L142.239 230.039C140.33 230.356 138.928 232.011 138.928 233.944V255.724C138.928 257.644 140.306 259.288 142.195 259.624L165.286 263.719C166.668 268.483 168.576 273.072 170.98 277.421L157.354 296.48C156.229 298.052 156.407 300.21 157.774 301.584L173.17 316.993C174.528 318.351 176.671 318.541 178.243 317.436L197.528 303.929C201.856 306.309 206.43 308.198 211.17 309.568L215.035 332.777C215.348 334.682 216.999 336.08 218.936 336.08H240.716C242.636 336.08 244.28 334.702 244.612 332.813L248.751 309.489C253.499 308.091 258.049 306.19 262.333 303.806L281.757 317.432C283.333 318.545 285.472 318.351 286.834 316.993L302.23 301.584C303.601 300.21 303.779 298.044 302.642 296.468L288.79 277.234C291.138 272.958 293.004 268.435 294.362 263.739L317.797 259.624C319.694 259.292 321.072 257.644 321.072 255.724V233.944C321.076 232.003 319.67 230.348 317.754 230.035ZM230 272.72C214.691 272.72 202.28 260.309 202.28 245C202.28 229.691 214.691 217.28 230 217.28C245.309 217.28 257.72 229.691 257.72 245C257.72 260.309 245.309 272.72 230 272.72Z" fill="#CCD2DF"/>
        <path d="M258.31 85.9363L240.225 82.9803C239.166 79.3512 237.719 75.8628 235.907 72.561L246.464 57.515C247.318 56.3002 247.171 54.6447 246.122 53.5921L234.221 41.6979C233.159 40.6391 231.489 40.5014 230.271 41.3796L215.451 52.0315C212.119 50.1894 208.6 48.7267 204.949 47.6649L201.794 29.6537C201.537 28.191 200.267 27.12 198.78 27.12H181.95C180.451 27.12 179.172 28.2063 178.93 29.6874L176.005 47.6006C172.333 48.6563 168.808 50.1037 165.488 51.9213L150.708 41.3643C149.487 40.4922 147.825 40.633 146.763 41.6887L134.869 53.5829C133.82 54.6325 133.673 56.2849 134.526 57.4997L144.927 72.3805C143.076 75.7312 141.601 79.2777 140.527 82.9681L122.684 85.9393C121.209 86.1841 120.126 87.4632 120.126 88.9565V105.787C120.126 107.271 121.191 108.541 122.651 108.801L140.493 111.965C141.561 115.646 143.036 119.192 144.894 122.552L134.364 137.28C133.495 138.495 133.633 140.163 134.689 141.224L146.586 153.131C147.635 154.18 149.291 154.327 150.506 153.474L165.408 143.036C168.753 144.875 172.287 146.335 175.95 147.393L178.936 165.328C179.178 166.8 180.454 167.88 181.95 167.88H198.78C200.264 167.88 201.534 166.815 201.791 165.356L204.989 147.332C208.658 146.252 212.174 144.783 215.485 142.941L230.494 153.47C231.712 154.33 233.364 154.18 234.417 153.131L246.314 141.224C247.373 140.163 247.511 138.489 246.633 137.271L235.929 122.408C237.743 119.104 239.185 115.609 240.234 111.98L258.343 108.801C259.809 108.544 260.874 107.271 260.874 105.787V88.9565C260.877 87.4571 259.791 86.178 258.31 85.9363ZM190.5 118.92C178.67 118.92 169.08 109.33 169.08 97.5C169.08 85.6701 178.67 76.08 190.5 76.08C202.33 76.08 211.92 85.6701 211.92 97.5C211.92 109.33 202.33 118.92 190.5 118.92Z" fill="#CCD2DF"/>
        <g clip-path="url(#clip0_419_41)">
        <path d="M6.57549 379.199L27.1543 367.414C31.1786 370.196 35.4786 372.52 39.9921 374.358L41.6619 398.086C41.7953 400.003 43.2935 401.546 45.2066 401.747L66.865 403.987C68.7955 404.184 70.5862 402.96 71.0932 401.084L77.2903 378.293C82.1407 377.425 86.8691 376.023 91.4026 374.112L109.266 389.631C110.718 390.891 112.867 390.931 114.361 389.718L131.268 375.987C132.774 374.764 133.173 372.629 132.207 370.944L120.532 350.562C123.359 346.506 125.72 342.176 127.572 337.642L151.032 336.189C152.97 336.069 154.524 334.572 154.73 332.645L156.975 310.993C157.173 309.082 155.972 307.302 154.123 306.779L131.535 300.315C130.661 295.439 129.249 290.673 127.317 286.089L142.818 268.548C144.1 267.099 144.144 264.93 142.926 263.43L129.196 246.523C127.985 245.032 125.879 244.625 124.201 245.555L103.695 256.933C99.6188 254.106 95.2438 251.747 90.6368 249.887L89.1989 226.502C89.0808 224.572 87.5819 223.009 85.6551 222.804L63.9898 220.549C62.0792 220.351 60.2963 221.554 59.7725 223.403L53.3176 246.046C48.4574 246.927 43.7161 248.344 39.1728 250.269L21.5409 234.689C20.0973 233.408 17.9342 233.363 16.431 234.584L-0.475877 248.315C-1.96675 249.525 -2.37369 251.631 -1.4411 253.307L10.0507 274.022C7.24625 278.1 4.91255 282.444 3.08938 286.996L-20.5788 288.663C-22.5037 288.793 -24.0413 290.292 -24.2425 292.205L-26.4804 313.872C-26.6778 315.802 -25.4505 317.596 -23.5747 318.103L-0.696668 324.301C0.176634 329.101 1.57974 333.787 3.48616 338.289L-12.1118 356.257C-13.3746 357.711 -13.4058 359.859 -12.195 361.35L1.5355 378.257C2.75568 379.765 4.89047 380.164 6.57549 379.199ZM47.7855 290.743C59.6695 281.092 77.1272 282.902 86.7785 294.786C96.4298 306.67 94.6199 324.127 82.7359 333.779C70.8519 343.43 53.3942 341.62 43.7429 329.736C34.0916 317.852 35.9015 300.394 47.7855 290.743Z" fill="#CCD2DF"/>
        </g>
        <g clip-path="url(#clip1_419_41)">
        <path d="M-25.4245 206.199L-4.84574 194.414C-0.821352 197.196 3.47859 199.52 7.99205 201.358L9.66189 225.086C9.79535 227.003 11.2935 228.546 13.2066 228.747L34.865 230.987C36.7955 231.184 38.5862 229.96 39.0932 228.084L45.2903 205.293C50.1407 204.425 54.8691 203.023 59.4026 201.112L77.266 216.631C78.7175 217.891 80.867 217.931 82.3609 216.718L99.2678 202.987C100.774 201.764 101.173 199.629 100.207 197.944L88.5318 177.562C91.3593 173.506 93.7197 169.176 95.572 164.642L119.032 163.189C120.97 163.069 122.524 161.572 122.73 159.645L124.975 137.993C125.173 136.082 123.972 134.302 122.123 133.779L99.5348 127.315C98.6609 122.439 97.2492 117.673 95.3174 113.089L110.818 95.5478C112.1 94.0986 112.144 91.93 110.926 90.4299L97.1956 73.523C95.9848 72.0321 93.879 71.6252 92.2006 72.5547L71.6949 83.933C67.6188 81.1063 63.2438 78.7468 58.6368 76.887L57.1989 53.5016C57.0808 51.5723 55.5819 50.0093 53.6551 49.8039L31.9898 47.5493C30.0792 47.3512 28.2963 48.5542 27.7725 50.4029L21.3176 73.046C16.4574 73.9271 11.7161 75.3443 7.1728 77.2689L-10.4591 61.6889C-11.9027 60.4075 -14.0658 60.3634 -15.569 61.5842L-32.4759 75.3147C-33.9668 76.5255 -34.3737 78.6312 -33.4411 80.3072L-21.9493 101.022C-24.7537 105.1 -27.0874 109.444 -28.9106 113.996L-52.5788 115.663C-54.5037 115.793 -56.0413 117.292 -56.2425 119.205L-58.4804 140.872C-58.6778 142.802 -57.4505 144.596 -55.5747 145.103L-32.6967 151.301C-31.8234 156.101 -30.4203 160.787 -28.5138 165.29L-44.1118 183.257C-45.3746 184.711 -45.4058 186.859 -44.195 188.35L-30.4645 205.257C-29.2443 206.765 -27.1095 207.164 -25.4245 206.199ZM15.7855 117.743C27.6695 108.092 45.1272 109.902 54.7785 121.786C64.4298 133.67 62.6199 151.127 50.7359 160.779C38.8519 170.43 21.3942 168.62 11.7429 156.736C2.09159 144.852 3.90155 127.394 15.7855 117.743Z" fill="#CCD2DF"/>
        </g>
        <path d="M145.114 452.321L161.016 443.215C164.126 445.364 167.448 447.16 170.936 448.581L172.226 466.916C172.33 468.397 173.487 469.589 174.966 469.745L191.702 471.476C193.193 471.628 194.577 470.682 194.969 469.232L199.757 451.621C203.506 450.95 207.159 449.867 210.662 448.39L224.466 460.383C225.588 461.356 227.249 461.387 228.403 460.449L241.467 449.839C242.631 448.894 242.939 447.244 242.193 445.942L233.171 430.193C235.356 427.059 237.18 423.713 238.612 420.209L256.74 419.086C258.237 418.993 259.438 417.837 259.597 416.348L261.332 399.617C261.485 398.14 260.557 396.765 259.129 396.36L241.674 391.366C240.998 387.598 239.908 383.915 238.415 380.373L250.392 366.818C251.383 365.698 251.417 364.022 250.476 362.863L239.866 349.799C238.931 348.647 237.303 348.332 236.006 349.051L220.161 357.843C217.011 355.659 213.631 353.836 210.071 352.398L208.96 334.328C208.868 332.837 207.71 331.629 206.221 331.47L189.48 329.728C188.003 329.575 186.626 330.505 186.221 331.933L181.233 349.43C177.477 350.111 173.814 351.206 170.303 352.693L156.678 340.654C155.563 339.664 153.891 339.63 152.73 340.573L139.665 351.183C138.513 352.119 138.199 353.746 138.92 355.041L147.8 371.048C145.633 374.199 143.829 377.556 142.42 381.073L124.131 382.362C122.644 382.462 121.456 383.62 121.3 385.099L119.571 401.841C119.419 403.333 120.367 404.719 121.816 405.111L139.495 409.9C140.17 413.609 141.254 417.231 142.727 420.709L130.674 434.594C129.698 435.717 129.674 437.377 130.61 438.529L141.22 451.593C142.163 452.759 143.812 453.067 145.114 452.321ZM176.958 383.969C186.141 376.511 199.631 377.91 207.089 387.093C214.547 396.276 213.149 409.766 203.965 417.224C194.782 424.681 181.292 423.283 173.834 414.1C166.377 404.917 167.775 391.427 176.958 383.969Z" fill="#CCD2DF"/>
        <defs>
        <clipPath id="clip0_419_41">
        <rect width="198" height="198" fill="white" transform="translate(204.521 326.699) rotate(140.919)"/>
        </clipPath>
        <clipPath id="clip1_419_41">
        <rect width="198" height="198" fill="white" transform="translate(172.521 153.699) rotate(140.919)"/>
        </clipPath>
        </defs>
        </svg>